<?xml version="1.0" encoding="UTF-8" standalone="no"?>
<!-- Created with Inkscape (http://www.inkscape.org/) -->

<svg
   version="1.1"
   id="svg2"
   width="1967"
   height="2400"
   viewBox="0 0 1967 2400"
   sodipodi:docname="Beer-Sketch-Bier-Krug-Bier-Glas-Mug-Prost-Birra-Biere.svg"
   inkscape:version="1.4 (e7c3feb100, 2024-10-09)"
   xmlns:inkscape="http://www.inkscape.org/namespaces/inkscape"
   xmlns:sodipodi="http://sodipodi.sourceforge.net/DTD/sodipodi-0.dtd"
   xmlns="http://www.w3.org/2000/svg"
   xmlns:svg="http://www.w3.org/2000/svg"
   xmlns:rdf="http://www.w3.org/1999/02/22-rdf-syntax-ns#"
   xmlns:cc="http://creativecommons.org/ns#"
   xmlns:dc="http://purl.org/dc/elements/1.1/">
  <title
     id="title3715">Beer black&amp;white Sketch Bier Krug Bier Glas Mug Prost Birra Biére</title>
  <metadata
     id="metadata8">
    <rdf:RDF>
      <cc:Work
         rdf:about="">
        <dc:format>image/svg+xml</dc:format>
        <dc:type
           rdf:resource="http://purl.org/dc/dcmitype/StillImage" />
        <dc:title>Beer black&amp;white Sketch Bier Krug Bier Glas Mug Prost Birra Biére</dc:title>
      </cc:Work>
    </rdf:RDF>
  </metadata>
  <defs
     id="defs6">
    <inkscape:path-effect
       effect="bspline"
       id="path-effect4"
       is_visible="true"
       lpeversion="1.3"
       weight="33.333333"
       steps="2"
       helper_size="0"
       apply_no_weight="true"
       apply_with_weight="true"
       only_selected="false"
       uniform="false" />
    <inkscape:path-effect
       effect="bspline"
       id="path-effect3"
       is_visible="true"
       lpeversion="1.3"
       weight="33.333333"
       steps="2"
       helper_size="0"
       apply_no_weight="true"
       apply_with_weight="true"
       only_selected="false"
       uniform="false" />
    <inkscape:path-effect
       effect="bspline"
       id="path-effect2"
       is_visible="true"
       lpeversion="1.3"
       weight="33.333333"
       steps="2"
       helper_size="0"
       apply_no_weight="true"
       apply_with_weight="true"
       only_selected="false"
       uniform="false" />
  </defs>
  <sodipodi:namedview
     pagecolor="#ffffff"
     bordercolor="#666666"
     borderopacity="1"
     objecttolerance="10"
     gridtolerance="10"
     guidetolerance="10"
     inkscape:pageopacity="0"
     inkscape:pageshadow="2"
     inkscape:window-width="1920"
     inkscape:window-height="1011"
     id="namedview4"
     showgrid="false"
     inkscape:zoom="0.2"
     inkscape:cx="330"
     inkscape:cy="1060"
     inkscape:window-x="0"
     inkscape:window-y="0"
     inkscape:window-maximized="1"
     inkscape:current-layer="layer1"
     inkscape:showpageshadow="2"
     inkscape:pagecheckerboard="0"
     inkscape:deskcolor="#d1d1d1" />
  <g
     inkscape:groupmode="layer"
     id="layer1"
     inkscape:label="Layer 1">
    <path
       style="fill:#ffeeaa;stroke:#000000;stroke-width:2.11;stroke-linecap:round"
       d="m 1418.4685,749.0991 c 19.069,13.66367 45.7958,7.95795 66.5166,-3.30348 20.7209,-11.26142 35.4353,-28.0779 43.093,-53.15331 7.6576,-25.07541 8.2582,-58.40808 -1.2014,-86.63654 -9.4597,-28.22846 -28.9788,-51.35112 -51.5016,-69.96989 -22.5228,-18.61877 -48.0478,-32.73259 -65.3151,-52.55266 -17.2674,-19.82008 -26.2762,-45.34508 -36.3364,-69.36934 -10.0602,-24.02426 -21.1711,-46.54628 -42.6428,-69.06903 -21.4718,-22.52274 -53.303,-45.04482 -96.8471,-56.75655 -43.5441,-11.71174 -98.7983,-12.61263 -133.4831,-10.81078 -34.6848,1.80184 -48.7986,6.30624 -62.1621,2.10193 -13.3635,-4.2043 -25.9759,-17.11699 -46.09629,-45.1955 C 972.37182,206.30544 944.74474,163.06306 895.49479,125.97566 846.24483,88.888271 775.37538,57.95796 715.31482,48.949079 655.25427,39.940198 606.00601,52.852852 558.70826,75.525851 511.4105,98.198849 466.06607,130.63063 431.23099,178.37901 c -34.83508,47.74838 -59.15892,110.81018 -75.97583,151.20075 -16.81691,40.39056 -26.12603,58.10793 -49.39968,74.6246 -23.27364,16.51667 -60.51013,31.83168 -90.39024,50.75082 -29.8801,18.91914 -52.40218,41.44122 -63.21298,65.31535 -10.8108,23.87412 -9.90992,49.09884 -10.961,106.30694 -1.05108,57.2081 -4.05403,146.3955 -6.15614,228.52838 -2.10211,82.13289 -3.30329,157.20645 -1.9519,208.40795 1.35139,51.2015 5.25521,78.5282 13.51361,101.3512 8.25839,22.8231 20.87074,41.141 37.68776,47.8977 16.81703,6.7567 37.83763,1.952 52.55243,-11.4116 14.71481,-13.3636 23.12302,-35.285 29.27922,-97.7485 6.15621,-62.4635 10.06004,-165.46446 21.17133,-215.76474 11.11129,-50.30027 29.42925,-47.89792 48.49851,-51.35147 19.06927,-3.45354 38.88869,-12.76267 52.70258,-29.42958 13.8139,-16.6669 21.62155,-40.69044 32.28234,-71.92206 10.6608,-31.23161 24.17405,-69.66928 38.13815,-90.99065 13.96411,-21.32136 28.37824,-25.52548 42.19218,-26.42636 13.81395,-0.90088 27.0269,1.50148 43.24331,22.8232 16.21641,21.32173 35.43524,61.56116 50.15006,95.79568 14.71482,34.23452 24.92482,62.46218 42.34248,80.78058 17.41767,18.31841 42.0418,26.72664 74.77494,31.38131 32.73314,4.65466 73.57317,5.55554 108.40829,-3.15335 34.83512,-8.70889 63.66337,-27.02684 83.18299,-52.853 19.51962,-25.82616 29.72963,-59.15883 37.98795,-83.78361 8.25832,-24.62478 14.5645,-40.54038 29.1293,-51.05095 14.56479,-10.51056 37.38715,-15.61556 57.35725,-16.66658 19.9702,-1.05101 37.087,1.95193 49.2492,7.80786 12.1622,5.85593 19.3693,14.56448 26.4264,42.64303 7.0571,28.07855 13.9639,75.52506 23.2733,103.75338 9.3095,28.22833 21.0209,37.23711 36.6368,39.48933 15.6158,2.25222 35.1349,-2.25219 49.0989,-18.91915 13.9641,-16.66696 22.3723,-45.4952 34.6848,-77.62769 12.3125,-32.1325 28.5284,-67.56722 46.3964,-85.73539 17.8681,-18.16817 37.3872,-19.06905 51.5014,-13.36324 14.1142,5.7058 22.8228,18.01791 32.883,40.69091 10.0601,22.67299 21.4713,55.70538 40.5404,69.36904 z"
       id="path4"
       inkscape:path-effect="#path-effect4"
       inkscape:original-d="m 1410.8108,768.46847 c 26.7267,-5.70571 53.4535,-11.41141 80.1802,-17.11712 14.715,-16.81715 29.4294,-33.63363 44.1441,-50.45045 0.6006,-33.334 1.2012,-66.66667 1.8018,-100 -19.5199,-23.12358 -39.039,-46.24625 -58.5585,-69.36937 -25.5261,-14.11439 -51.0511,-28.22823 -76.5766,-42.34234 -9.0092,-25.52604 -18.018,-51.05105 -27.027,-76.57658 -11.1114,-22.52297 -22.2222,-45.04504 -33.3334,-67.56756 -31.8324,-22.52298 -63.6636,-45.04505 -95.4955,-67.56757 -55.2563,-0.90092 -110.5105,-1.8018 -165.7657,-2.70271 -14.1144,4.5046 -28.2282,9.00901 -42.3424,13.51352 C 1025.225,275.37512 1012.6126,262.46246 1000,249.54955 972.37182,206.30544 944.74474,163.06306 917.11712,119.81982 846.24483,88.88827 775.37538,57.957958 704.5045,27.027027 655.25427,39.940198 606.00601,52.852853 556.75676,65.765766 511.4105,98.198847 466.06607,130.63063 420.72072,163.06306 c -24.32481,63.06433 -48.64865,126.12613 -72.97297,189.18919 -9.3095,17.71807 -18.61862,35.43544 -27.92793,53.15316 -37.23798,15.31562 -74.47447,30.63063 -111.71171,45.94594 -22.52297,22.52297 -45.04505,45.04505 -67.56757,67.56757 0.90092,25.22573 1.8018,50.45045 2.7027,75.67567 -3.00306,89.19098 -6.006,178.37838 -9.00901,267.56757 -1.20122,75.07658 -2.4024,150.15014 -3.6036,225.22524 3.90398,27.3279 7.80781,54.6546 11.71171,81.982 12.61287,18.3187 25.22523,36.6366 37.83784,54.9549 21.02144,-4.8049 42.04204,-9.6096 63.06306,-14.4144 8.40858,-21.9224 16.81682,-43.8438 25.22523,-65.7658 3.90398,-103.005 7.80781,-206.00596 11.71171,-309.00896 18.31868,2.40245 36.63664,4.8048 54.95496,7.2072 19.82021,-9.30949 39.63963,-18.61862 59.45945,-27.92793 7.80797,-24.0245 15.61562,-48.04804 23.42343,-72.07207 13.51378,-38.4392 27.02703,-76.87687 40.54054,-115.31531 14.4147,-4.20429 28.82883,-8.40841 43.24324,-12.61262 13.21348,2.40245 26.42643,4.80481 39.63964,7.20721 19.21961,40.24105 38.43844,80.48048 57.65766,120.72072 10.21041,28.2288 20.42042,56.45646 30.63063,84.68469 24.62512,8.40857 49.24925,16.81681 73.87387,25.22522 40.84166,0.90092 81.68169,1.8018 122.52253,2.7027 28.8294,-18.31868 57.65765,-36.63663 86.48648,-54.95495 10.21042,-33.334 20.42042,-66.66667 30.63063,-100 6.30644,-15.91623 12.61262,-31.83183 18.91892,-47.74775 22.82328,-5.1052 45.64564,-10.21021 68.46844,-15.31531 17.1175,3.00306 34.2343,6.006 51.3514,9.00901 7.2073,8.70888 14.4144,17.41741 21.6216,26.12612 6.907,47.4484 13.8138,94.8949 20.7207,142.34234 11.712,9.00919 23.4234,18.01802 35.1352,27.02703 19.5199,-4.50459 39.039,-9.00901 58.5585,-13.51351 8.4086,-28.82941 16.8168,-57.65766 25.2252,-86.48649 16.2166,-35.43614 32.4325,-70.87087 48.6487,-106.3063 19.5199,-0.90092 39.039,-1.80181 58.5586,-2.70271 8.7088,12.31256 17.4174,24.62463 26.1261,36.93694 11.4116,33.03369 22.8228,66.06607 34.2342,99.0991 z" />
    <path
       style="fill:#d5f6ff;stroke:#000000;stroke-width:2.11;stroke-linecap:round"
       d="m 1415.5983,926.92308 c -1.0684,26.92307 -3.2051,80.76922 14.744,106.83762 17.9491,26.0684 55.9825,24.359 96.7949,27.1368 40.8124,2.7779 84.4013,10.0427 112.1792,22.0087 27.7779,11.9659 39.7434,28.6323 46.581,72.009 6.8376,43.3768 8.547,113.4609 8.7607,202.9919 0.2136,89.531 -1.0684,198.5032 -2.9915,295.5126 -1.9231,97.0094 -4.4871,182.0504 -9.6154,230.3411 -5.1283,48.2907 -12.8204,59.8289 -30.5557,70.2991 -17.7354,10.4702 -45.5126,19.8717 -87.6072,24.5725 -42.0946,4.7009 -98.5037,4.7009 -126.4951,17.0943 -27.9915,12.3935 -27.5641,37.1793 -27.3505,61.9659 0.2137,24.7865 0.2137,49.5724 15.8123,61.7519 15.5986,12.1794 46.7946,11.7521 94.0174,8.1195 47.2229,-3.6325 110.4695,-10.47 156.4099,-28.2053 45.9405,-17.7353 74.5724,-46.3672 94.2306,-70.2991 19.6583,-23.9318 30.3419,-43.1622 38.4616,-63.0342 8.1197,-19.872 13.6751,-40.3844 17.5212,-156.6258 3.8462,-116.2414 5.9829,-328.203 4.7008,-472.6482 -1.2821,-144.4452 -5.9828,-221.3668 -16.2394,-270.726 -10.2566,-49.3592 -26.0682,-71.1536 -54.9148,-93.80342 -28.8466,-22.64982 -70.7261,-46.15362 -130.1285,-58.33311 -59.4025,-12.17949 -136.324,-13.03417 -214.3155,13.03421 z"
       id="path3"
       inkscape:path-effect="#path-effect3"
       inkscape:original-d="m 1416.6667,900 c -2.1368,53.84615 -4.2735,107.6923 -6.4103,161.5385 38.035,-1.7095 76.0684,-3.4188 114.1026,-5.1282 43.5906,7.2651 87.1795,14.5299 130.7692,21.7948 11.9661,16.667 23.9316,33.3334 35.8974,50 1.7095,70.0869 3.4188,140.171 5.1282,210.2564 -1.282,108.9766 -2.5641,217.9488 -3.8461,326.9231 -2.5642,85.0445 -5.1282,170.0855 -7.6923,255.1282 -7.6925,11.5387 -15.3846,23.0769 -23.0769,34.6154 -27.7784,9.4019 -55.5556,18.8034 -83.3334,28.2051 -56.4114,0 -112.8205,0 -169.2307,0 0.4273,24.7869 0.8547,49.5727 1.282,74.359 0,24.7868 0,49.5727 0,74.359 31.1972,-0.4274 62.3932,-0.8547 93.5898,-1.2821 63.2491,-6.8377 126.4957,-13.6752 189.7435,-20.5128 28.6331,-28.633 57.265,-57.2649 85.8975,-85.8974 10.684,-19.2312 21.3675,-38.4616 32.0513,-57.6923 5.5556,-20.5133 11.1111,-41.0257 16.6666,-61.5385 2.1368,-211.97 4.2735,-423.9316 6.4103,-635.8974 -4.701,-76.9246 -9.4017,-153.8462 -14.1026,-230.7693 -15.8123,-21.7953 -31.6239,-43.58971 -47.4359,-65.38458 -41.8812,-23.50474 -83.7607,-47.00854 -125.641,-70.51282 C 1570.5113,901.70938 1416.6667,900 1416.6667,900 Z" />
    <path
       style="fill:#ffcc00;stroke:#000000;stroke-width:2.11;stroke-linecap:round"
       d="m 294.62041,1046.9206 c -7.36551,254.0598 -8.3459,778.5696 -2.86518,1044.3931 5.48072,265.8235 17.42219,272.9605 31.66713,276.3823 14.24493,3.4218 31.30855,3.1193 205.22845,2.5407 173.91991,-0.5786 504.68249,-1.4333 676.47749,-5.0658 171.795,-3.6326 184.6153,-10.0427 190.5982,-22.0087 5.9829,-11.966 5.1282,-29.487 4.2735,-300.0051 -0.8547,-270.518 -1.7094,-794.0118 -4.4872,-1065.80688 -2.7779,-271.79508 -7.4786,-291.88012 -21.1541,-307.47853 -13.6754,-15.5984 -36.3245,-26.70928 -56.4102,-27.35022 -20.0856,-0.64094 -37.6066,9.18792 -49.7862,29.48737 -12.1795,20.29946 -19.017,51.06808 -25.4273,75.64091 -6.4103,24.57283 -12.3931,42.94854 -26.2822,53.84601 -13.8891,10.89747 -35.6836,14.31622 -51.7093,13.24777 -16.0258,-1.06845 -26.282,-6.62389 -36.3248,-27.13705 -10.0429,-20.51315 -19.8717,-55.98254 -29.4872,-82.47843 -9.6155,-26.49588 -19.017,-44.01694 -39.7438,-51.70923 -20.7268,-7.69229 -52.7774,-5.55558 -74.78609,4.48734 -22.00869,10.04292 -33.97426,27.99128 -44.44444,49.57272 -10.47017,21.58145 -19.44435,46.79462 -35.25654,69.87175 -15.81219,23.07714 -38.46131,44.01689 -64.52999,58.33321 -26.06867,14.31631 -55.55526,22.00847 -86.32481,19.44424 -30.76955,-2.56423 -62.82019,-15.38449 -92.94868,-39.9575 -30.12849,-24.57302 -58.33305,-60.89708 -79.27336,-95.94015 -20.94031,-35.04307 -34.61525,-68.80308 -50.64107,-84.18766 -16.02582,-15.38459 -34.40152,-12.39319 -48.2905,-11.32483 -13.88899,1.06837 -23.29051,0.21368 -33.97439,20.72692 -10.68388,20.51324 -22.64946,62.39275 -33.11963,95.08529 -10.47017,32.69254 -19.44435,56.19635 -33.54711,69.01688 -14.10276,12.82054 -33.33314,14.95725 -49.82398,7.83039 -16.49084,-7.12687 -30.24119,-23.51669 -37.6067,230.54318 z"
       id="path2"
       inkscape:path-effect="#path-effect2"
       inkscape:original-d="M 288.23529,776.47059 C 287.2549,1300.9804 286.27451,1825.4902 285.29412,2350 c 11.94183,7.1372 23.8833,14.2742 35.82478,21.4112 16.53856,-0.8481 33.60709,-0.8732 50.67597,-0.8984 330.77585,-0.8547 661.53843,-1.7094 992.30773,-2.5641 12.8207,-6.4104 25.641,-12.8205 38.4615,-19.2308 -0.8547,-17.5217 -1.7094,-35.0427 -2.5641,-52.5641 -0.8547,-523.5147 -1.7094,-1047.0085 -2.5641,-1570.51277 -4.701,-20.08588 -9.4017,-40.17094 -14.1026,-60.25641 -22.65,-11.11134 -45.2991,-22.22223 -67.9487,-33.33334 -17.5217,9.82926 -35.0427,19.65812 -52.5641,29.48718 -6.8377,30.76985 -13.6752,61.53846 -20.5128,92.30769 -5.983,18.37644 -11.9658,36.75214 -17.9487,55.12821 -21.7953,3.41887 -43.5898,6.83761 -65.3846,10.25641 -10.2567,-5.55567 -20.5129,-11.11111 -30.7693,-16.66667 -9.8292,-35.47079 -19.6581,-70.94017 -29.4872,-106.41025 -9.4018,-17.52172 -18.8034,-35.04274 -28.2051,-52.56411 -32.0519,2.1368 -64.1025,4.27351 -96.15383,6.41026 -11.96605,17.94908 -23.93162,35.89744 -35.89743,53.84615 -8.97454,25.21418 -17.94872,50.42735 -26.92308,75.64103 -22.65002,20.94059 -45.29914,41.88034 -67.94872,62.82051 -29.48777,7.69246 -58.97436,15.38462 -88.46153,23.07693 -32.05193,-12.82077 -64.10257,-25.64103 -96.15385,-38.46154 -28.20569,-36.32552 -56.41026,-72.64958 -84.61539,-108.97436 -13.67548,-33.76136 -27.35042,-67.52137 -41.02564,-101.28205 -18.37643,2.99151 -36.75213,5.9829 -55.1282,8.97436 -9.4019,-0.85472 -18.80342,-1.70941 -28.20513,-2.56411 -11.96605,41.88118 -23.93162,83.76069 -35.89744,125.64103 -8.97453,23.50474 -17.94871,47.00855 -26.92307,70.51282 -19.23116,2.13679 -38.46154,4.2735 -57.69231,6.41026 -13.7509,-16.39048 -27.50126,-32.7803 -41.25189,-49.17044 z" />
    <path
       style="fill:#000000"
       d="M 263.74185,2368.242 241,2345.484 v -554.0894 -554.0894 l -23.25,-0.6156 c -19.30229,-0.511 -25.28753,-1.0408 -35.25,-3.12 -27.32134,-5.7022 -50.09677,-16.8059 -62.95204,-30.6911 -14.82558,-16.0134 -21.113442,-42.7611 -24.537395,-104.3785 -4.146749,-74.6249 -3.564425,-355.42442 1.001647,-483 2.526654,-70.59444 4.071478,-80.50999 16.514588,-106 26.10312,-53.47284 78.89916,-99.96024 134.4732,-118.40488 9.36848,-3.10934 16.87446,-4.78398 40.54357,-9.0456 15.76155,-2.83786 22.13003,-5.89185 25.20999,-12.0894 1.88283,-3.78865 2.40781,-7.1607 3.19115,-20.49738 0.51567,-8.77951 1.66939,-19.78774 2.56383,-24.46274 9.52224,-49.77013 36.41058,-115.3433 63.55789,-155 17.56222,-25.65483 45.7801,-55.85144 73.01144,-78.131251 C 510.68984,46.368803 573.17177,19.838832 646,10.802773 c 16.12531,-2.0007248 62.11117,-1.6842342 79.5,0.547146 87.89765,11.279256 167.06515,50.117085 229.53909,112.606811 30.02082,30.02841 47.79111,54.84202 69.49751,97.04327 15.5256,30.18452 20.0413,38 21.9557,38 0.7412,0 12.7461,-3.83949 26.6776,-8.5322 29.7729,-10.02873 40.7179,-12.94794 58.3301,-15.55758 50.5417,-7.4889 108.4811,0.62802 150.2703,21.05184 68.3683,33.41396 133.3401,115.42531 148.1761,187.03694 0.6266,3.02444 1.5787,11.34944 2.1157,18.5 1.1962,15.92713 1.9557,18.38092 7.1388,23.06356 5.34,4.82437 13.7456,8.55747 30.0384,13.34078 17.1854,5.04535 25.0815,8.07506 35.8695,13.76313 30.0524,15.84529 54.0799,44.82398 65.525,79.02706 23.7101,70.85652 -5.1779,148.19401 -67.2585,180.06152 -12.4769,6.40466 -17.4339,8.27791 -35.3753,13.36812 -24.476,6.94419 -31.3569,11.29457 -33.9117,21.44034 -0.6475,2.57174 -1.0883,14.99539 -1.0883,30.67692 l 0,26.35479 60.25,1.7574 c 101.8016,2.96939 125.0909,4.16849 149.9491,7.72041 24.2785,3.46908 40.8825,8.67837 63.5905,19.95062 47.998,23.82626 93.5987,64.27688 125.1056,110.97635 10.6406,15.7714 16.1781,25.7693 30.6587,55.3533 L 1875,1083.7808 v 432.6163 432.6162 l -14.6051,29.1969 c -8.0329,16.0582 -17.9286,34.5416 -21.9906,41.0742 -42.687,68.6495 -117.5223,125.6736 -181.9043,138.6103 -25.8518,5.1946 -61.4548,7.1601 -197.5,10.9036 l -25.5,0.7017 -0.6442,62.5 c -0.749,72.6795 -1.2401,87.3407 -3.3225,99.2054 -3.1849,18.1455 -6.1671,23.0862 -26.758,44.3298 L 1387.7857,2391 H 837.1347 286.48369 Z M 1358,2242.5 V 2168 H 837 316 v 74.5 74.5 h 521 521 z m 139.7539,-149.4826 c 119.6383,-4.3327 146.6744,-7.7157 175.9166,-22.0126 46.0047,-22.4921 87.4871,-64.1662 109.9868,-110.495 16.1693,-33.2939 16.697,-49.1317 16.0615,-482.0098 -0.4312,-293.6934 -0.6961,-318.6564 -3.7624,-354.5 -2.3807,-27.8302 -5.1922,-38.8418 -14.4919,-56.7602 -20.1185,-38.7636 -51.9941,-72.89617 -90.061,-96.43764 -38.1232,-23.57631 -58.2143,-26.81547 -197.3149,-31.81183 C 1463.6123,937.89565 1437.3998,937 1435.8386,937 L 1433,937 v 37.34552 37.34548 l 25.75,0.688 c 48.8247,1.3043 110.7856,3.6341 124.25,4.6718 48.9299,3.7711 73.5459,12.0293 95.2827,31.9655 11.6737,10.7067 30.0485,33.5864 35.1283,43.7408 6.1128,12.2193 8.7266,32.9797 10.7952,85.7429 1.8623,47.5001 1.8623,627.4999 0,675 -1.8884,48.166 -4.1044,68.5368 -8.8658,81.5 -5.2751,14.3619 -32.6913,46.7041 -48.9176,57.707 -20.9394,14.1987 -46.3452,20.2532 -97.4228,23.217 -9.075,0.5266 -42.825,1.7097 -75,2.6292 -32.175,0.9196 -59.0625,1.8321 -59.75,2.028 -0.9711,0.2766 -1.25,8.6189 -1.25,37.3874 V 2095 h 5.0039 c 2.7521,0 29.6396,-0.8922 59.75,-1.9826 z M 471.97882,1782.75 c -0.0325,-475.7846 -1.82215,-643.9618 -7.51561,-706.25 -1.36352,-14.9174 -1.71009,-16.5075 -5.12208,-23.5 C 453.82603,1041.6974 443.4078,1031.6701 431,1025.7225 419.35474,1020.1404 410.06978,1018 397.5,1018 c -12.5364,0 -21.85573,2.1398 -33.35796,7.6592 -16.43448,7.8861 -29.49341,23.3187 -32.02067,37.8408 -6.88551,39.5654 -9.06151,212.173 -9.09883,721.75 L 323,2093 h 74.5 74.5 z m 220.71183,-112.5 c -0.28623,-256.1778 -0.89501,-441.072 -1.54504,-469.25 -1.75984,-76.2875 -3.6448,-117.0257 -6.24646,-135 -2.80669,-19.3908 -19.59148,-37.0974 -42.39915,-44.7275 -7.27363,-2.4334 -9.40734,-2.6796 -23.5,-2.7117 -14.86398,-0.034 -15.8595,0.093 -24.26121,3.0867 -4.81867,1.7171 -11.29814,4.6363 -14.39882,6.4872 -11.50195,6.8659 -23.15912,21.1836 -25.92328,31.8397 -2.78775,10.747 -4.82372,43.6057 -6.4146,103.5256 -2.24396,84.5177 -2.98044,224.8074 -2.99104,569.75 L 545,2093 h 74.0815 74.08151 z m 222.00448,17 c -0.51591,-393.255 -1.63412,-575.3584 -3.68026,-599.3405 -1.20351,-14.1061 -5.05908,-29.4955 -9.20504,-36.7419 -6.53482,-11.4217 -19.2818,-22.3963 -32.49594,-27.9777 -12.20226,-5.154 -31.61256,-6.6882 -45.61648,-3.6055 -3.95858,0.8713 -11.43256,3.6167 -16.60885,6.1008 -16.32659,7.835 -29.46774,23.3841 -31.95872,37.8148 -6.75721,39.1457 -9.06895,226.0247 -9.10762,736.25 L 766,2093 h 74.61372 74.61372 z m 220.98967,-23.5 c -0.2888,-259.5557 -0.8926,-445.2608 -1.5273,-469.75 -2.5867,-99.8119 -4.4764,-129.2323 -8.9395,-139.1772 -6.6195,-14.7495 -21.8223,-27.5953 -39.718,-33.5602 -7.2724,-2.424 -9.4097,-2.6685 -23.5,-2.689 -14.3308,-0.021 -16.0851,0.1826 -23.2565,2.697 -11.7787,4.1299 -18.451,8.3214 -27.3324,17.1702 -9.9343,9.8978 -13.86095,17.3319 -15.34898,29.0592 -2.60923,20.5636 -4.44075,63.8559 -6.19781,146.5 -0.63721,29.9719 -1.27141,218.8916 -1.56014,464.75 L 987.81768,2093 h 74.17252 74.1724 z m 221.9757,-35 c -0.3278,-255.3375 -1.0287,-482.475 -1.5576,-504.75 -0.844,-35.5492 -1.2272,-41.7193 -3.1353,-50.4747 -1.1957,-5.4861 -3.035,-12.1594 -4.0875,-14.8295 -4.8998,-12.4309 -18.5268,-26.8312 -31.2708,-33.0455 -10.6683,-5.2021 -17.4729,-6.8124 -31.1862,-7.3802 -14.7357,-0.6101 -24.473,1.458 -37.3681,7.9367 -9.7533,4.9002 -20.4936,14.839 -25.823,23.896 -5.4718,9.2989 -7.1855,22.5479 -9.2351,71.3972 -3.2245,76.852 -4.9001,321.0146 -4.9599,722.75 L 1209,2093 h 74.6282 74.6282 z M 1592.5,1941.6891 c 18.8949,-3.6927 22.8697,-6.1593 45.2417,-28.0749 L 1656,1895.7283 v -379.6992 -379.6993 l -16.836,-16.5808 c -18.2814,-18.0041 -26.0342,-23.7525 -36.1225,-26.7834 -13.0608,-3.924 -17.9118,-4.1618 -94.7915,-4.646 l -75.25,-0.4739 v 428.1492 428.1492 l 75.75,-0.4457 c 63.2978,-0.3725 77.0651,-0.7028 83.75,-2.0093 z M 215.17731,1160.0373 c 4.61392,-1.3691 12.61523,-6.7415 14.949,-10.0373 6.80344,-9.608 10.78595,-75.3957 12.86386,-212.5 2.65827,-175.39767 4.46251,-200.83449 15.10507,-212.95569 4.44444,-5.06194 12.00908,-7.99435 20.40476,-7.90983 8.92968,0.0899 14.76681,2.61312 22.10906,9.55711 6.78115,6.41333 11.34884,14.4866 14.88475,26.30841 3.46684,11.59085 7.81267,19.71124 13.69941,25.59798 12.64557,12.64558 30.327,14.23813 42.18576,3.79963 4.87884,-4.29453 7.30585,-8.19265 9.91973,-15.93254 3.57255,-10.57853 6.42256,-30.36851 8.70776,-60.46507 2.21272,-29.142 7.46297,-63.01522 12.13335,-78.28103 3.45831,-11.30401 7.65205,-18.02741 17.34873,-27.8135 10.12583,-10.21918 21.32009,-17.64005 34.00273,-22.541 36.6549,-14.16453 77.53803,-11.82148 108.92049,6.24234 29.68605,17.08737 42.59473,41.56594 51.09625,96.89319 5.99722,39.02942 15.65666,64.43926 33.56147,88.28573 21.61678,28.79025 50.85115,47.15479 87.36586,54.88175 13.28139,2.8105 38.69158,3.04376 52.06465,0.47793 54.33868,-10.42572 95.26122,-46.3553 114.92258,-100.90087 3.5445,-9.83333 6.93173,-23.79737 11.09619,-45.74454 5.22006,-27.51028 10.69056,-40.41649 21.87605,-51.61075 10.64536,-10.65371 23.52368,-16.22613 45.10518,-19.51692 14.18089,-2.16232 79.8208,-1.84834 92.9014,0.44438 19.3621,3.39372 30.3486,8.29846 39.6333,17.69367 12.9425,13.09645 18.7246,33.57493 22.4438,79.48962 3.7962,46.8649 7.2407,64.09652 14.8982,74.53124 4.8416,6.59759 13.8431,11.16654 23.0686,11.70908 6.5924,0.3877 7.4102,0.19682 12.479,-2.91272 12.9317,-7.93321 19.7209,-25.44246 24.5916,-63.42192 4.0586,-31.64669 9.3543,-55.01902 15.3859,-67.90568 8.947,-19.11555 29.1777,-35.4221 54.4065,-43.8533 15.1012,-5.04665 22.754,-6.14724 42.6917,-6.13972 17.0039,0.006 19.3675,0.23263 29.2268,2.79716 21.4692,5.58438 34.0286,12.57361 47.7732,26.58543 19.0519,19.42228 31.8214,44.03502 33.6828,64.92226 0.7601,8.52878 2.5147,11.9549 7.1044,13.87261 9.3151,3.89211 25.5633,-3.47401 41.9063,-18.9982 17.8703,-16.97509 26.3513,-39.6668 23.3353,-62.43624 -2.4818,-18.73637 -9.4057,-32.85016 -22.4978,-45.85998 -6.3544,-6.31434 -10.0289,-9.02549 -16.5962,-12.24489 -11.0092,-5.39693 -17.3473,-6.85089 -35.122,-8.05694 -26.4723,-1.79621 -41.2772,-9.29724 -53.4643,-27.08819 -9.8218,-14.33803 -14.6996,-29.60633 -20.3917,-63.82966 -7.3712,-44.31802 -22.0345,-77.21926 -47.4178,-106.39464 -23.9438,-27.5208 -67.5572,-53.93442 -98.539,-59.67834 -20.1904,-3.74323 -59.2189,-1.26458 -86.1425,5.4708 -53.5832,13.40467 -94.5976,45.90219 -118.6713,94.0285 -8.77953,17.55136 -14.06725,34.65496 -18.67421,60.40334 -3.4122,19.0708 -5.85996,27.80046 -10.51489,37.5 -4.58595,9.55582 -9.50317,15.53717 -15.83106,19.25705 -3.90659,2.29651 -5.80536,2.73855 -11.66604,2.71589 -15.86145,-0.0613 -26.3746,-9.88434 -31.20775,-29.15918 -2.66032,-10.6095 -2.35579,-37.9628 0.61025,-54.81376 7.16336,-40.69716 23.30805,-82.18039 43.97697,-112.99735 4.05871,-6.05146 8.21133,-12.80265 9.22804,-15.00265 3.6389,-7.874 2.1383,-18.69064 -5.0556,-36.44179 -17.37525,-42.87389 -39.50924,-76.56603 -71.01896,-108.10436 -28.406,-28.43179 -61.20244,-51.22449 -97.40084,-67.69114 C 766.46558,89.630166 740.72479,86.135916 674,87.344209 c -55.38759,1.002992 -70.48798,3.989785 -104.5,20.669661 -83.38714,40.89399 -141.53506,108.17088 -166.45962,192.59308 -5.1604,17.47884 -8.16716,31.93769 -12.03902,57.89305 -6.28001,42.09865 -13.84377,66.6077 -23.15074,75.01599 -9.69571,8.75949 -31.18046,16.16134 -66.80105,23.01405 -38.88675,7.48105 -69.40573,23.43648 -94.28587,49.29299 -8.35522,8.6831 -18.38615,22.57063 -23.24135,32.17697 -10.27236,20.32458 -13.47756,44.48428 -15.52203,117 -1.29568,45.9566 -1.29211,332.07536 0.005,386 1.45981,60.6972 3.58356,91.9433 7.10191,104.4883 3.37762,12.0432 23.67691,19.4136 40.07026,14.549 z M 506.91607,980.3096 c 4.17116,-2.57972 15.45893,-9.97228 25.08393,-16.42791 18.36337,-12.3166 30.47352,-18.73428 40.5,-21.46266 3.53978,-0.96324 11.79561,-1.84414 20.13435,-2.14834 24.25782,-0.88495 51.21217,2.4852 71.27597,8.91174 18.36942,5.88383 26.30564,10.38519 50.45721,28.61895 l 9.86752,7.44971 9.13248,-6.29083 C 772.36694,952.09581 782.76208,946.01392 796,942.31582 c 9.0421,-2.52597 45.42532,-2.48914 61.5,0.0623 20.00606,3.17539 37.10005,8.34758 51.2877,15.5183 5.5124,2.78608 10.19436,5.98933 29.90478,20.45988 l 9.19247,6.74872 18.80753,-12.88645 c 24.10807,-16.51825 30.12893,-20.28908 39.30752,-24.61806 11.2949,-5.32711 17.8408,-6.75362 33.6344,-7.32978 33.112,-1.20795 67.4166,5.11978 90.8656,16.76082 4.4,2.18434 15.3695,9.4004 24.3766,16.0357 l 16.3767,12.06417 20.9054,-14.14431 c 35.6664,-24.13133 53.2524,-30.61027 86.0166,-31.68964 24.8677,-0.81923 37.2145,1.3782 63.9563,11.38266 8.2139,3.07296 15.2293,5.29233 15.5897,4.93194 0.6996,-0.6996 -1.1565,-114.56208 -2.7485,-168.61203 -1.6607,-56.3799 -3.9938,-80.25284 -8.9702,-91.78768 -5.6618,-13.1233 -23.5024,-20.80186 -35.5834,-15.315 -12.8982,5.85804 -21.9876,26.27493 -25.8666,58.10268 -2.761,22.65418 -6.4352,44.1793 -9.1445,53.5716 -7.3465,25.46845 -20.226,42.81943 -40.9537,55.17216 -44.8911,26.75284 -104.3828,21.31833 -140.9347,-12.87424 -13.2309,-12.37687 -20.9011,-25.38606 -25.6303,-43.47103 -5.8861,-22.5086 -7.0677,-34.16407 -7.6186,-75.14849 L 1059.77,678 l -23.635,0.0309 c -25.872,0.0338 -36.76582,1.00963 -41.52597,3.71978 -5.39436,3.07123 -8.21122,10.52631 -11.61845,30.74934 -3.4933,20.73385 -5.6517,29.05672 -11.15138,43 -10.99138,27.86637 -28.97962,55.34993 -51.29091,78.36546 -33.94577,35.01726 -71.09902,55.06184 -118.04829,63.68833 -12.05606,2.21519 -47.80148,3.08238 -61.62439,1.49502 C 670.82812,891.00488 605.48524,850.84221 571.13309,794.71745 555.53982,769.24105 547.6078,746.06393 542.48206,711 c -6.04213,-41.33275 -13.29623,-58.84795 -27.18722,-65.64417 -4.63161,-2.26604 -7.35806,-2.85059 -14.73884,-3.15997 -8.43229,-0.35346 -9.43473,-0.18031 -14.55505,2.51406 -9.65699,5.08162 -15.00617,15.22146 -18.5926,35.24394 -0.89319,4.9865 -1.91434,20.00044 -2.45164,36.04614 -1.02068,30.48123 -2.0935,42.6438 -5.07188,57.5 -5.87964,29.32777 -18.71051,53.18029 -36.59198,68.02429 -9.12926,7.57851 -25.83786,15.62535 -39.29285,18.92339 -11.60056,2.84349 -31.40093,4.4975 -54.25,4.53172 L 316,865 v 44.61658 44.61657 l 2.25,-0.49301 c 1.2375,-0.27116 11.95312,-3.00489 23.81248,-6.07495 16.77166,-4.34172 24.62075,-5.85269 35.32711,-6.80055 29.71436,-2.6307 63.08565,4.06401 85.61041,17.17453 3.575,2.08083 12.98431,8.99826 20.90957,15.37208 7.92526,6.37381 14.63749,11.58875 14.91607,11.58875 0.27857,0 3.91926,-2.11068 8.09043,-4.6904 z"
       id="path1" />
  </g>
</svg>
